<?xml version="1.0" encoding="utf-8"?><svg viewBox="0 0 197 197" xmlns="http://www.w3.org/2000/svg" xmlns:xlink="http://www.w3.org/1999/xlink"><style>:root>svg{display:none}:root>svg:target{display:block}</style><svg fill="none" viewBox="0 0 13 10" id="extend" xmlns="http://www.w3.org/2000/svg"><path d="M5.69 8.878L1.144 2.585A1 1 0 011.955 1h9.09a1 1 0 01.81 1.585L7.31 8.878a1 1 0 01-1.622 0z" stroke="#fff"/></svg><svg fill="none" viewBox="0 0 22 19" id="feedback" xmlns="http://www.w3.org/2000/svg"><path d="M18.847 14.637l-.12-.137H6a.5.5 0 01-.5-.5V4a.5.5 0 01.5-.5h15a.5.5 0 01.5.5v12.889c-.093-.16-.215-.301-.36-.417l-2.293-1.835z" stroke="#fff"/><path d="M3.153 11.637l.12-.137H16a.5.5 0 00.5-.5V1a.5.5 0 00-.5-.5H1a.5.5 0 00-.5.5v12.889a1.5 1.5 0 01.36-.417l2.293-1.835z" stroke="#fff"/><path fill="#142B36" d="M6 4h12v8H6z"/><rect x="8.25" y="7.25" width="10.5" height=".5" rx=".25" fill="#fff" stroke="#fff" stroke-width=".5"/><rect x="8.25" y="10.25" width="9.5" height=".5" rx=".25" fill="#fff" stroke="#fff" stroke-width=".5"/></svg><svg fill="none" viewBox="0 0 197 197" id="logotype" xmlns="http://www.w3.org/2000/svg"><rect width="197" height="197" rx="15" fill="#99E9E4" fill-opacity=".29"/><circle cx="98.255" cy="98.255" r="81.37" fill="#03262D"/><path d="M115.386 59.1l-32.36 41.018h32.36L78.8 140.714" stroke="#0092D0" stroke-width="3"/></svg><svg fill="none" viewBox="0 0 16 17" id="reverse-lang" xmlns="http://www.w3.org/2000/svg"><path d="M4.23 16V1m0 15l3.232-2.093M4.23 16L1 13.907M11.77 1L8.537 3.093M11.77 1L15 3.093M11.77 1v15" stroke="#68757B"/></svg><svg fill="none" viewBox="0 0 19 19" id="save" xmlns="http://www.w3.org/2000/svg"><path d="M5 1H2a1 1 0 00-1 1v15.5a1 1 0 001 1h1.5M5 1v5a1 1 0 001 1h7a1 1 0 001-1V1M5 1h9m0 0h.586a1 1 0 01.707.293l2.914 2.914a1 1 0 01.293.707V17.5a1 1 0 01-1 1h-2m0 0V11a1 1 0 00-1-1h-10a1 1 0 00-1 1v7.5m12 0h-12" stroke="#fff"/></svg><svg fill="none" viewBox="0 0 17 18" id="search" xmlns="http://www.w3.org/2000/svg"><circle cx="6.667" cy="6.667" r="6.167" stroke="#fff" stroke-opacity=".3"/><path stroke="#fff" stroke-opacity=".3" d="M11.02 11.646l5.333 5.334"/></svg><svg viewBox="0 0 48 48" id="translate" xmlns="http://www.w3.org/2000/svg"><path fill="none" d="M0 0h48v48H0z"/><path fill="#fff" d="M25.74 30.15l-5.08-5.02.06-.06c3.48-3.88 5.96-8.34 7.42-13.06H34V8H20V4h-4v4H2v3.98h22.34A31.586 31.586 0 0118 22.7a31.54 31.54 0 01-4.62-6.7h-4c1.46 3.26 3.46 6.34 5.96 9.12L5.17 35.17 8 38l10-10 6.22 6.22 1.52-4.07zM37 20h-4l-9 24h4l2.25-6h9.5L42 44h4l-9-24zm-5.25 14L35 25.33 38.25 34h-6.5z"/></svg></svg>